<?xml version="1.0" standalone="no"?>
<!DOCTYPE svg PUBLIC "-//W3C//DTD SVG 20010904//EN"
 "http://www.w3.org/TR/2001/REC-SVG-20010904/DTD/svg10.dtd">
<svg version="1.0" xmlns="http://www.w3.org/2000/svg"
 width="659.000000pt" height="659.000000pt" viewBox="0 0 659.000000 659.000000"
 preserveAspectRatio="xMidYMid meet">
<metadata>
Created by potrace 1.14, written by Peter Selinger 2001-2017
</metadata>
<g transform="translate(0.000000,659.000000) scale(0.100000,-0.100000)"
fill="#000000" stroke="none">
<path d="M867 4926 c-5 -13 -12 -14 -32 -6 -31 12 -38 12 -32 3 3 -5 -18 -7
-46 -7 -29 1 -56 -1 -61 -4 -5 -3 -26 -6 -45 -8 -20 -1 -49 -5 -66 -9 -16 -3
-38 -7 -47 -8 -10 -1 -18 -4 -18 -7 0 -4 -6 -7 -12 -8 -52 -7 -62 -10 -66 -20
-2 -7 -12 -12 -22 -12 -10 0 -22 -4 -25 -10 -3 -5 -15 -10 -25 -10 -10 0 -25
-7 -34 -15 -8 -8 -19 -15 -25 -15 -6 0 -30 -12 -52 -26 -23 -14 -38 -20 -34
-12 3 7 0 5 -9 -6 -8 -10 -25 -24 -37 -30 -20 -10 -25 -35 -5 -28 4 1 14 -2
20 -8 7 -5 16 -7 19 -3 4 3 7 1 7 -5 0 -7 7 -12 15 -12 8 0 15 -6 15 -13 0 -7
10 -18 23 -26 l22 -14 -20 24 -20 24 28 -24 c15 -14 27 -30 27 -37 0 -7 8 -19
18 -26 9 -7 18 -20 20 -28 2 -8 8 -17 13 -18 5 -2 7 -8 3 -13 -3 -5 2 -9 12
-9 13 0 14 -3 5 -14 -9 -11 -9 -15 0 -18 6 -2 12 -16 12 -31 0 -15 4 -30 9
-33 6 -4 5 -10 -3 -15 -10 -6 -11 -9 -1 -9 7 0 12 -14 12 -38 0 -21 5 -43 12
-50 9 -9 9 -12 -1 -12 -11 0 -11 -3 0 -17 12 -14 12 -16 0 -8 -10 6 -12 4 -7
-4 5 -7 10 -26 13 -43 3 -23 1 -28 -9 -22 -10 6 -11 5 -1 -7 6 -8 10 -29 9
-46 -1 -18 3 -35 8 -37 8 -3 8 -5 0 -5 -6 -1 -9 -21 -7 -52 3 -39 1 -49 -9
-44 -7 3 -4 -1 6 -9 11 -9 15 -16 10 -16 -6 0 -8 -36 -7 -87 2 -53 -2 -92 -9
-100 -9 -11 -7 -12 7 -7 14 6 16 4 10 -6 -11 -18 -12 -90 -1 -90 6 0 1 -7 -10
-15 -18 -15 -18 -15 0 -8 14 5 17 3 11 -7 -10 -15 -10 -164 0 -179 3 -6 3 -11
-2 -11 -9 0 -9 -71 -1 -86 3 -5 4 -18 2 -29 -1 -11 2 -23 8 -26 9 -6 8 -12 -1
-23 -11 -13 -11 -16 -1 -16 8 0 10 -3 7 -7 -4 -3 -2 -12 4 -20 9 -10 8 -13 -1
-13 -10 0 -10 -3 -1 -14 11 -13 23 -54 24 -83 0 -7 4 -13 9 -13 4 0 8 -8 8
-18 0 -10 9 -28 19 -39 11 -12 17 -24 14 -27 -4 -3 -1 -6 6 -6 7 0 9 -4 6 -10
-3 -5 -2 -10 4 -10 6 0 8 -6 5 -13 -2 -7 7 -26 21 -43 14 -16 25 -32 25 -36 0
-5 7 -8 16 -8 8 0 13 -3 11 -7 -2 -5 20 -31 49 -60 30 -28 54 -49 54 -45 0 4
5 -1 11 -11 6 -9 14 -15 20 -12 5 4 11 0 14 -7 3 -8 14 -14 25 -15 11 -1 27
-9 36 -17 9 -9 20 -14 25 -11 5 4 9 1 9 -4 0 -6 9 -11 19 -11 11 0 22 -6 24
-12 4 -9 6 -8 6 2 1 11 3 12 9 3 4 -7 19 -15 32 -17 14 -2 25 -5 25 -6 0 -1
20 -3 44 -5 25 -3 50 -7 57 -9 7 -3 15 0 18 7 3 9 5 9 5 0 1 -7 7 -10 14 -8 6
3 37 7 67 9 68 6 97 12 144 31 20 8 36 12 36 8 0 -5 7 1 16 12 8 11 18 19 22
18 13 -4 61 21 56 29 -3 4 2 8 11 8 15 0 15 1 1 16 -18 17 -21 28 -6 19 14 -9
12 18 -2 34 -8 9 -8 11 -2 8 13 -7 27 17 16 27 -11 11 -10 166 1 166 6 0 3 6
-8 13 -14 11 -15 16 -5 22 9 6 11 4 5 -5 -5 -8 -4 -11 3 -7 11 8 5 44 -12 66
-8 11 -8 13 1 8 8 -5 11 8 11 47 -1 36 -5 53 -12 49 -6 -4 -2 4 9 17 11 13 14
20 8 16 -8 -4 -13 -1 -13 9 0 9 4 14 9 11 5 -4 7 3 4 14 -3 11 -10 17 -17 13
-6 -3 -3 3 7 14 9 11 14 23 10 26 -11 12 -9 246 2 240 5 -3 4 0 -2 8 -7 7 -13
17 -13 22 0 4 6 5 13 1 9 -5 9 -4 0 6 -9 9 -9 19 -2 33 6 11 7 17 2 14 -5 -3
-10 10 -10 29 -1 20 3 31 9 28 6 -4 7 0 1 12 -5 11 -8 33 -7 49 1 17 -4 36
-10 44 -9 12 -8 13 3 7 10 -7 12 -3 6 13 -4 13 -2 21 5 21 6 0 8 5 4 12 -10
16 -11 58 -2 58 4 0 7 6 5 13 -1 7 9 12 25 13 15 1 25 -3 22 -7 -3 -5 3 -9 12
-9 10 0 15 -3 11 -6 -3 -3 5 -18 19 -32 13 -15 24 -30 24 -35 0 -4 5 -5 10 -2
6 4 10 3 9 -2 -4 -12 23 -63 33 -63 4 0 8 -6 8 -13 0 -7 9 -23 20 -35 11 -12
20 -26 20 -31 0 -6 9 -16 19 -23 10 -6 17 -18 14 -25 -3 -7 2 -13 11 -13 9 0
16 -7 16 -15 0 -9 7 -18 16 -22 8 -3 13 -12 10 -20 -3 -7 1 -16 9 -19 8 -4 12
-10 9 -15 -3 -5 0 -9 6 -9 6 0 8 -4 5 -10 -3 -5 -1 -10 6 -10 7 0 10 -3 6 -6
-7 -8 17 -34 32 -34 5 0 8 -9 6 -20 -2 -11 0 -18 6 -15 5 4 9 0 9 -7 0 -7 9
-19 20 -26 11 -7 17 -18 14 -27 -4 -8 -1 -15 6 -15 6 0 8 -4 5 -10 -3 -5 -1
-10 4 -10 6 0 11 -9 11 -20 0 -11 5 -20 10 -20 6 0 10 -6 10 -13 0 -7 13 -27
29 -44 18 -20 25 -34 17 -37 -7 -3 -7 -5 2 -5 6 -1 12 -8 12 -17 0 -14 2 -15
17 -3 10 8 14 9 10 2 -4 -6 -2 -15 4 -19 8 -4 9 -3 5 4 -4 7 -2 12 3 12 6 0
10 6 9 13 -2 6 2 11 8 10 6 -1 11 3 11 10 1 22 8 41 21 55 7 8 10 17 7 22 -3
5 -2 10 2 12 12 5 63 83 63 95 0 6 7 14 16 17 8 3 12 10 9 16 -3 5 1 10 9 10
10 0 13 6 10 15 -4 8 -2 15 3 15 13 0 54 75 46 84 -3 3 2 6 12 6 10 0 15 3 12
7 -4 3 1 12 11 20 11 10 12 12 2 8 -8 -4 -6 1 5 10 11 9 19 21 17 26 -1 5 5 9
13 9 8 0 15 6 15 13 0 8 9 22 20 32 11 10 17 21 15 25 -3 4 5 18 16 31 11 13
29 34 39 46 10 12 23 31 30 42 6 12 16 18 22 15 7 -5 9 -2 6 8 -4 9 4 22 18
33 13 9 22 21 19 25 -6 10 35 21 48 13 5 -3 7 -13 4 -23 -3 -13 0 -17 9 -13
14 5 13 -25 -2 -49 -4 -6 -3 -8 4 -4 11 7 11 -19 -1 -30 -4 -4 -2 -13 4 -21 9
-10 8 -13 0 -13 -7 0 -9 -5 -4 -12 11 -19 13 -39 2 -32 -5 3 -9 1 -9 -5 0 -5
5 -13 10 -16 7 -4 7 -12 0 -25 -7 -13 -6 -20 3 -23 9 -4 9 -6 -1 -6 -8 -1 -10
-6 -5 -13 11 -19 13 -39 2 -32 -5 3 -9 0 -9 -5 0 -6 6 -11 13 -11 7 0 8 -3 2
-8 -15 -11 -17 -32 -3 -32 9 0 8 -4 -2 -10 -12 -7 -13 -13 -3 -28 9 -15 9 -22
0 -31 -8 -8 -7 -11 4 -11 8 0 10 -3 4 -8 -5 -4 -10 -14 -10 -22 0 -8 5 -18 10
-22 6 -5 4 -8 -5 -8 -13 0 -13 -1 0 -10 12 -8 12 -10 1 -10 -11 0 -11 -3 0
-17 10 -11 10 -14 2 -9 -7 4 -13 2 -13 -3 0 -6 6 -11 13 -11 7 0 8 -3 2 -8
-12 -9 -13 -32 -1 -51 6 -10 5 -12 -2 -7 -7 4 -12 3 -12 -3 0 -5 5 -13 10 -16
7 -4 7 -13 0 -26 -8 -14 -7 -19 2 -19 10 0 9 -3 -1 -9 -12 -8 -12 -12 -2 -25
11 -13 11 -16 0 -16 -11 0 -11 -2 1 -10 12 -8 12 -10 1 -10 -11 0 -11 -3 0
-17 10 -11 10 -14 2 -9 -7 4 -13 2 -13 -3 0 -6 6 -11 13 -11 7 0 8 -3 2 -8
-12 -9 -13 -32 -1 -51 6 -10 5 -12 -2 -7 -16 10 -15 -7 1 -23 10 -11 9 -12 -3
-6 -13 8 -13 7 -1 -8 11 -14 11 -17 0 -17 -12 0 -12 -2 0 -9 11 -7 11 -9 0
-14 -12 -5 -12 -7 0 -15 9 -7 10 -12 2 -16 -6 -4 -11 -12 -11 -17 0 -6 6 -7
13 -3 8 5 8 2 -2 -9 -10 -13 -10 -17 -1 -17 10 0 10 -3 0 -15 -10 -12 -10 -15
1 -15 12 0 12 -2 0 -9 -8 -6 -10 -14 -5 -22 13 -21 13 -38 2 -45 -6 -4 -5 -10
3 -15 12 -8 11 -11 -1 -19 -12 -8 -12 -10 -1 -10 11 0 11 -3 1 -15 -10 -12
-10 -15 0 -15 9 0 9 -4 -1 -17 -10 -11 -10 -14 -1 -9 6 4 12 2 12 -3 0 -6 -6
-11 -12 -11 -9 0 -10 -2 -2 -8 7 -4 11 -20 11 -37 0 -16 4 -38 8 -48 4 -10 5
-21 1 -24 -3 -3 -1 -12 5 -20 9 -10 8 -13 0 -13 -8 0 -7 -5 3 -15 8 -8 13 -24
11 -35 -3 -13 0 -18 7 -14 7 5 9 2 5 -9 -3 -9 -1 -18 6 -21 8 -3 8 -5 -1 -5
-10 -1 -10 -5 2 -17 9 -8 14 -20 11 -25 -4 -5 -1 -9 5 -9 7 0 10 -6 7 -12 -2
-7 7 -26 22 -42 14 -16 19 -26 11 -22 -8 4 -7 1 4 -8 10 -8 15 -19 11 -25 -3
-6 -1 -11 4 -11 6 0 10 -6 9 -12 -2 -7 3 -12 10 -10 6 1 12 -4 12 -12 0 -18
65 -88 74 -79 3 3 6 -1 6 -10 0 -10 3 -17 8 -17 4 0 19 -10 34 -23 32 -27 88
-59 108 -63 8 -2 16 -8 18 -14 2 -5 8 -8 13 -4 5 3 9 0 9 -6 0 -7 7 -9 16 -6
10 4 13 2 8 -6 -5 -7 0 -9 14 -6 12 4 22 2 22 -4 0 -5 5 -6 10 -3 5 3 10 1 10
-6 0 -8 5 -7 17 2 9 8 14 9 10 3 -4 -7 0 -15 9 -18 10 -4 13 -2 9 7 -4 6 0 4
8 -6 10 -12 16 -14 19 -6 3 8 9 6 21 -5 9 -10 17 -12 17 -6 0 6 5 8 11 5 19
-12 193 -13 208 -1 12 9 13 8 6 -3 -6 -10 -4 -12 5 -6 12 7 42 14 78 17 6 1
12 6 12 12 0 6 5 4 10 -4 5 -8 10 -10 10 -4 0 11 31 25 60 27 8 1 21 8 28 17
8 8 11 10 8 3 -4 -6 14 0 39 13 25 14 45 23 45 19 0 -3 10 3 22 15 12 11 28
20 35 20 7 0 13 5 13 10 0 6 5 10 10 10 6 0 29 13 52 30 22 16 37 30 33 30 -5
0 0 7 11 16 10 8 13 13 7 9 -7 -3 -13 0 -13 7 0 9 -3 9 -10 -2 -6 -10 -10 -11
-10 -2 0 6 -9 12 -20 12 -11 0 -20 5 -20 10 0 6 -6 10 -14 10 -17 0 -86 62
-86 78 0 7 -5 12 -11 12 -5 0 -8 4 -4 9 3 5 -2 16 -10 24 -8 9 -15 20 -15 26
0 6 -4 11 -8 11 -5 0 -9 6 -9 13 -2 20 -27 81 -38 89 -6 5 -4 8 5 8 10 0 11 3
4 8 -7 4 -13 21 -15 37 -2 17 -8 36 -14 44 -7 11 -7 13 3 7 6 -4 12 -3 12 3 0
5 -6 12 -12 15 -10 5 -10 7 0 12 6 3 9 11 5 17 -11 17 -10 41 2 50 7 5 7 10 0
15 -13 10 -15 55 -3 63 6 4 7 12 2 20 -12 20 -11 89 1 89 5 0 5 4 -2 8 -12 8
-13 29 0 49 4 6 3 15 -3 18 -8 5 -7 11 1 21 6 8 7 14 2 14 -13 0 -12 53 1 63
8 5 8 9 1 15 -12 8 -13 27 -3 38 4 4 3 13 -3 21 -8 9 -8 17 0 26 6 8 7 17 3
21 -10 11 -9 30 3 39 7 5 7 9 0 15 -12 8 -13 27 -3 38 4 4 3 13 -4 21 -8 10
-8 17 0 25 7 7 7 19 2 34 -7 17 -6 24 3 24 8 0 9 2 1 8 -6 4 -9 16 -7 27 8 40
8 70 0 82 -4 6 -3 14 3 18 8 5 8 10 0 20 -8 10 -8 15 0 20 8 5 8 11 -1 21 -9
11 -9 17 1 29 9 11 9 15 1 15 -8 0 -9 5 -2 18 6 11 6 24 1 32 -6 9 -5 17 3 22
9 6 9 8 0 8 -7 0 -13 5 -13 11 0 5 6 7 13 3 9 -6 9 -5 0 7 -10 12 -10 18 -1
27 7 7 8 12 2 12 -6 0 -11 7 -11 15 0 8 4 12 9 9 4 -3 8 -1 8 5 0 5 -5 13 -10
16 -8 5 -7 11 1 21 9 11 9 14 -1 14 -10 0 -10 3 0 15 10 12 10 15 0 15 -10 0
-10 3 0 15 9 11 9 15 1 15 -7 0 -9 5 -5 12 10 16 13 48 4 48 -8 0 -6 43 3 57
4 7 3 14 -3 18 -7 4 -7 12 0 26 8 14 7 19 -1 19 -9 0 -9 3 0 14 9 11 9 16 0
21 -8 6 -7 10 2 16 11 7 11 9 -1 9 -13 0 -13 1 0 10 8 5 10 10 5 10 -6 0 -11
21 -12 48 0 46 -10 167 -13 167 -1 0 -3 11 -6 24 -2 14 -10 31 -17 40 -10 12
-9 13 3 6 12 -6 13 -5 3 6 -7 7 -13 21 -13 32 0 10 -4 15 -10 12 -5 -3 -10 1
-10 10 0 9 -7 27 -16 40 -9 14 -13 25 -9 25 5 0 -2 8 -13 19 -12 10 -19 21
-15 25 3 3 1 6 -6 6 -7 0 -10 4 -7 9 3 5 -1 12 -9 15 -8 3 -14 10 -13 15 2 5
-9 20 -24 34 -16 14 -28 31 -28 37 0 5 -10 10 -22 10 -12 0 -18 3 -15 7 4 3
-4 12 -18 20 -14 7 -36 19 -50 26 -14 8 -22 17 -18 20 6 6 -4 9 -23 6 -4 0
-10 5 -14 11 -4 7 -19 13 -34 13 -14 1 -26 6 -26 10 0 5 -4 5 -10 2 -5 -3 -10
-2 -10 3 0 5 -11 8 -25 7 -14 -2 -25 2 -25 8 0 8 -3 8 -8 2 -10 -14 -32 -17
-32 -4 0 8 -5 8 -15 -1 -9 -8 -15 -8 -15 -2 0 11 -45 10 -57 -1 -3 -4 -12 -2
-19 4 -8 7 -14 7 -18 0 -4 -7 -15 -7 -30 -1 -13 5 -26 6 -29 3 -3 -3 -23 -7
-43 -9 -21 -2 -41 -9 -46 -16 -6 -10 -8 -10 -8 1 0 10 -3 11 -14 2 -8 -7 -20
-11 -28 -9 -7 2 -27 -7 -45 -20 -17 -12 -38 -22 -47 -22 -9 0 -16 -4 -16 -8 0
-5 -16 -14 -35 -22 -19 -8 -35 -18 -35 -22 0 -5 -4 -7 -9 -4 -5 3 -14 -1 -21
-9 -7 -8 -19 -15 -26 -15 -8 0 -14 -5 -14 -10 0 -6 -8 -14 -17 -17 -10 -4 -37
-26 -60 -49 -23 -23 -45 -39 -48 -36 -3 4 -8 -4 -12 -16 -3 -12 -9 -20 -13
-17 -4 2 -19 -9 -34 -25 -14 -17 -31 -30 -36 -30 -6 0 -9 -6 -7 -12 1 -7 -4
-12 -10 -11 -7 2 -12 0 -10 -5 2 -8 -13 -28 -59 -75 -17 -18 -38 -44 -48 -59
-10 -15 -23 -25 -29 -21 -6 3 -7 1 -3 -6 4 -6 0 -14 -8 -17 -9 -3 -13 -10 -10
-15 3 -5 0 -9 -6 -9 -6 0 -8 -4 -5 -10 3 -5 -1 -10 -9 -10 -9 0 -16 -6 -16
-14 0 -8 -7 -17 -16 -20 -9 -3 -12 -11 -8 -18 4 -7 4 -10 -1 -6 -4 4 -14 3
-22 -3 -10 -9 -13 -8 -13 0 0 7 -3 10 -7 8 -12 -6 -90 78 -85 92 2 6 -4 11
-13 11 -9 0 -14 4 -11 9 3 5 -1 11 -9 15 -8 3 -15 11 -15 18 0 7 -18 28 -40
47 -22 19 -37 38 -34 43 3 4 0 8 -6 8 -15 0 -41 26 -33 34 4 3 -1 6 -11 6 -9
0 -14 5 -11 10 3 6 2 10 -4 10 -5 0 -13 10 -16 21 -5 16 -9 18 -15 9 -6 -9
-10 -7 -15 9 -3 11 -13 21 -21 21 -8 0 -14 5 -14 11 0 5 -4 7 -10 4 -5 -3 -10
2 -10 11 0 10 -3 15 -6 12 -7 -7 -60 44 -56 55 1 4 -2 7 -8 7 -5 0 -10 -6 -11
-12 0 -7 -5 -4 -10 7 -10 19 -85 62 -101 57 -4 -1 -8 5 -8 13 0 9 -12 18 -30
22 -17 3 -33 10 -36 14 -3 5 -10 7 -15 4 -5 -4 -9 -1 -9 5 0 7 -7 10 -15 6 -8
-3 -15 -2 -15 3 0 12 -79 43 -91 36 -5 -4 -9 -1 -9 5 0 6 -4 8 -10 5 -5 -3
-10 -1 -10 6 0 6 -8 9 -20 6 -11 -3 -20 -2 -20 1 0 4 -15 7 -32 6 -18 0 -39 4
-45 9 -9 6 -13 5 -13 -4 0 -9 -3 -10 -8 -4 -4 6 -14 10 -22 10 -8 -1 -21 3
-27 8 -9 6 -13 5 -13 -4 0 -11 -2 -11 -10 1 -5 8 -10 10 -10 5 0 -9 -48 -12
-57 -5 -2 1 -13 3 -25 3 -13 1 -26 5 -29 10 -3 5 -9 2 -12 -7z"/>
<path d="M4163 4871 c-9 -14 -9 -21 0 -30 8 -8 8 -11 -2 -11 -10 0 -11 -3 -2
-14 9 -11 9 -16 0 -21 -8 -6 -7 -10 2 -16 12 -7 12 -9 0 -9 -10 0 -11 -3 -2
-14 9 -11 9 -16 0 -21 -8 -6 -7 -10 2 -16 12 -7 12 -9 0 -9 -11 0 -11 -3 -1
-15 10 -12 10 -15 0 -15 -9 0 -9 -4 1 -17 10 -11 10 -14 2 -9 -7 4 -13 3 -13
-3 0 -5 5 -13 11 -17 8 -4 7 -9 -2 -15 -12 -8 -11 -11 1 -19 13 -9 13 -10 0
-10 -13 0 -13 -1 0 -10 8 -5 10 -10 4 -10 -14 0 -14 -30 0 -30 6 0 5 -4 -3 -9
-9 -6 -10 -10 -2 -16 9 -5 9 -10 0 -21 -9 -11 -8 -14 2 -14 11 0 11 -2 -1 -10
-13 -9 -13 -10 0 -10 12 0 12 -2 2 -9 -8 -4 -14 -12 -14 -16 0 -4 6 -12 14
-16 10 -7 10 -9 -2 -9 -10 0 -11 -3 -2 -12 8 -8 8 -17 1 -31 -8 -14 -8 -18 0
-13 6 4 11 2 11 -3 0 -6 -6 -11 -12 -11 -9 0 -8 -4 2 -10 13 -9 13 -10 0 -10
-13 0 -13 -1 0 -10 13 -9 13 -10 0 -10 -13 0 -13 -1 0 -10 13 -9 13 -10 0 -10
-13 0 -13 -1 0 -10 13 -9 13 -10 0 -10 -13 0 -13 -1 0 -10 13 -9 13 -10 0 -10
-13 0 -13 -1 0 -10 13 -9 13 -10 0 -10 -13 0 -13 -1 0 -10 13 -9 13 -10 0 -10
-13 0 -13 -1 0 -10 13 -9 13 -10 0 -10 -13 0 -13 -1 0 -10 13 -9 13 -10 0 -10
-13 0 -13 -1 0 -10 13 -9 13 -10 0 -10 -13 0 -13 -1 0 -10 13 -9 13 -10 0 -10
-13 0 -13 -1 0 -10 13 -9 13 -10 0 -10 -13 0 -13 -1 0 -10 13 -9 13 -10 0 -10
-13 0 -13 -1 0 -10 13 -9 13 -10 0 -10 -13 0 -13 -1 0 -10 13 -9 13 -10 0 -10
-13 0 -13 -1 0 -10 13 -9 13 -10 0 -10 -13 0 -13 -1 0 -10 13 -9 13 -10 0 -10
-13 0 -13 -1 0 -10 13 -9 13 -10 0 -10 -13 0 -13 -1 0 -10 13 -9 13 -10 0 -10
-13 0 -13 -1 0 -10 13 -9 13 -10 0 -10 -13 0 -13 -1 0 -10 13 -9 13 -10 0 -10
-13 0 -13 -1 0 -10 13 -9 13 -10 0 -10 -13 0 -13 -1 0 -10 13 -9 13 -10 0 -10
-13 0 -13 -1 0 -10 13 -9 13 -10 0 -10 -13 0 -13 -1 0 -10 13 -9 13 -10 0 -10
-13 0 -13 -1 0 -10 13 -9 13 -10 0 -10 -13 0 -13 -1 0 -10 13 -9 13 -10 0 -10
-13 0 -13 -1 0 -10 10 -6 11 -10 3 -10 -7 0 -13 -5 -13 -11 0 -5 4 -8 9 -5 10
6 7 -46 -3 -63 -4 -6 -1 -11 6 -11 10 0 10 -2 -1 -9 -7 -5 -9 -11 -4 -14 11
-7 11 -46 0 -64 -5 -8 -3 -13 5 -13 9 0 9 -3 -2 -10 -13 -9 -13 -10 0 -10 13
0 13 -1 0 -11 -12 -8 -12 -12 -2 -16 10 -4 10 -8 1 -20 -10 -12 -10 -16 2 -24
11 -7 11 -9 0 -9 -10 0 -11 -3 -2 -14 9 -11 9 -16 0 -21 -8 -6 -7 -10 2 -16
11 -7 11 -9 -1 -9 -13 0 -13 -1 0 -10 11 -7 11 -10 2 -10 -9 0 -10 -5 -2 -19
7 -14 7 -22 -1 -27 -8 -4 -7 -9 2 -15 11 -7 11 -9 1 -9 -8 0 -10 -5 -5 -12 11
-19 12 -37 2 -44 -6 -3 -5 -12 3 -22 7 -9 8 -13 2 -9 -6 3 -11 0 -11 -8 0 -20
27 -28 33 -10 4 8 10 12 15 9 5 -3 9 -1 9 3 0 5 7 18 16 29 8 10 13 12 9 4 -4
-8 3 -4 14 10 11 14 21 29 21 34 0 5 3 7 6 3 4 -3 22 11 42 31 19 20 32 30 27
22 -10 -18 5 -6 87 73 31 31 59 53 62 49 3 -3 6 2 6 12 0 9 5 14 10 11 6 -3
10 -1 10 5 0 6 5 8 10 5 6 -3 10 1 10 9 0 10 6 13 18 9 9 -3 14 -3 10 2 -6 7
30 45 110 115 12 10 22 16 22 12 0 -4 15 10 34 30 19 20 37 34 41 30 5 -4 6 2
3 14 -3 12 -1 29 5 39 7 13 6 16 -3 10 -9 -6 -9 -3 -1 13 8 15 8 21 -1 24 -8
3 -8 10 -1 23 6 11 7 29 3 40 -4 11 -3 28 2 38 5 10 5 17 -1 17 -5 0 -8 11 -7
24 0 13 4 22 9 19 4 -2 7 1 7 6 0 6 -4 11 -8 11 -10 0 -8 62 2 78 3 6 2 13 -4
17 -5 3 -10 11 -10 16 0 6 4 8 9 5 11 -7 9 13 -2 32 -7 11 16 18 46 13 4 0 7
5 7 12 0 9 2 9 9 -1 11 -17 21 -17 32 0 7 10 9 10 9 0 0 -9 5 -10 19 -3 10 6
21 7 25 4 8 -9 70 -8 84 1 7 4 12 3 12 -2 0 -10 30 -9 48 2 6 4 12 3 12 -2 0
-10 30 -9 48 2 6 4 12 3 12 -2 0 -10 30 -9 48 2 6 4 12 4 12 -1 0 -4 29 -8 65
-8 36 0 65 4 65 9 0 5 6 4 13 -1 6 -5 23 -8 37 -6 14 2 44 3 68 3 57 0 99 0
115 0 6 1 24 -1 40 -3 15 -2 27 0 27 5 0 5 6 6 12 2 18 -11 48 -12 48 -2 0 5
6 6 12 2 19 -12 98 -11 98 1 0 7 3 7 8 0 9 -13 72 -14 72 -2 0 5 6 5 13 -2 10
-8 17 -7 25 1 7 7 12 8 12 2 0 -12 29 -12 48 0 6 4 12 3 12 -1 0 -5 11 -9 25
-9 14 0 25 4 25 9 0 4 6 5 12 1 18 -11 48 -12 48 -2 0 5 6 6 12 2 19 -12 48
-12 48 0 0 7 3 7 8 1 12 -17 115 -13 129 4 9 12 9 18 0 23 -9 6 -8 8 2 8 10 0
11 3 2 13 -6 8 -8 17 -4 20 10 10 9 111 -1 118 -5 4 -5 13 0 20 13 21 13 39 1
39 -8 0 -7 4 1 12 15 15 16 32 1 22 -7 -4 -7 1 1 16 9 18 9 24 0 30 -9 6 -9 9
1 13 11 4 11 6 1 6 -8 1 -10 6 -6 13 11 18 12 48 2 48 -5 0 -4 10 3 21 8 16 8
20 -1 14 -9 -6 -9 -3 -1 13 6 11 11 23 11 27 0 3 -5 3 -11 -1 -7 -4 -6 2 1 17
9 16 10 24 2 27 -7 2 -8 11 -2 27 6 15 6 27 -1 30 -5 4 -6 11 -3 17 11 17 13
68 3 62 -5 -3 -6 2 -2 12 5 13 2 15 -17 9 -13 -4 -20 -3 -17 2 6 9 -50 9 -60
0 -3 -3 -16 -2 -29 3 -13 5 -24 6 -24 2 0 -4 -15 -7 -34 -7 -19 0 -32 3 -29 8
2 4 -1 7 -6 7 -6 0 -11 -4 -11 -9 0 -9 -48 -7 -57 3 -3 3 -14 1 -24 -5 -13 -7
-19 -6 -19 1 0 7 -6 8 -18 1 -10 -5 -24 -6 -33 -1 -8 5 -21 5 -29 0 -7 -4 -24
-4 -37 1 -12 5 -23 5 -23 0 0 -9 -48 -6 -57 3 -3 3 -14 1 -24 -5 -13 -7 -19
-6 -19 1 0 7 -6 8 -18 1 -10 -6 -24 -6 -32 -1 -8 5 -18 6 -23 3 -14 -8 -87 -9
-87 0 0 4 -8 3 -18 -2 -10 -6 -24 -6 -32 -1 -8 5 -18 6 -23 3 -6 -3 -30 -5
-56 -4 -50 2 -81 1 -123 -3 -15 -1 -30 3 -32 8 -3 8 -7 8 -13 1 -8 -11 -49
-12 -60 -2 -3 4 -14 2 -24 -4 -13 -7 -19 -6 -19 1 0 7 -6 8 -18 1 -10 -5 -24
-6 -33 -1 -8 5 -21 5 -29 0 -7 -4 -24 -4 -37 1 -12 5 -23 5 -23 0 0 -4 -12 -6
-27 -4 -16 2 -34 4 -40 4 -7 -1 -21 -1 -30 -1 -29 0 -66 -1 -95 -4 -16 -1 -28
2 -28 6 0 5 -9 4 -20 -2 -14 -8 -20 -8 -20 0 0 7 -6 8 -18 1 -10 -6 -24 -6
-32 -1 -8 5 -18 6 -23 3 -14 -8 -87 -9 -87 0 0 4 -8 3 -18 -2 -10 -5 -24 -6
-33 -1 -8 5 -21 5 -29 0 -7 -4 -24 -4 -37 1 -12 5 -23 5 -23 0 0 -9 -48 -6
-57 3 -3 3 -14 1 -24 -5 -13 -7 -19 -6 -19 1 0 7 -6 8 -18 1 -11 -6 -24 -6
-35 0 -11 7 -17 7 -17 0 0 -9 -44 -6 -62 5 -4 3 -8 1 -8 -4 0 -10 -30 -10 -46
0 -5 4 -15 -1 -21 -11z"/>
<path d="M4790 3737 c0 -5 9 -11 20 -14 11 -3 17 -10 13 -16 -4 -6 0 -8 10 -4
20 7 31 -7 36 -44 0 -5 6 -7 13 -3 8 5 9 2 5 -10 -4 -10 -3 -15 3 -11 6 3 10
-1 10 -9 0 -8 11 -23 25 -34 13 -11 21 -22 18 -26 -3 -3 0 -6 8 -6 8 0 33 -19
54 -42 22 -23 29 -34 16 -23 l-24 20 23 -32 c23 -31 39 -46 24 -21 -5 7 -3 8
5 4 7 -5 10 -14 7 -21 -4 -12 67 -90 82 -90 4 0 6 -3 5 -7 -2 -5 3 -8 11 -8 7
0 20 -8 27 -17 13 -17 13 -17 -6 -3 -19 15 -19 15 0 -11 11 -15 24 -24 29 -21
5 3 7 -2 3 -11 -4 -10 -1 -17 5 -17 20 0 107 -91 101 -106 -4 -12 2 -16 23
-13 3 0 11 -7 18 -17 7 -9 15 -13 19 -8 6 10 88 11 105 0 6 -3 13 -3 16 2 5 9
130 7 145 -3 6 -3 11 -2 11 3 0 11 63 8 81 -4 8 -4 9 -3 5 4 -8 13 20 12 40
-1 6 -3 14 -4 17 -1 10 10 86 11 80 1 -3 -5 3 -4 14 1 12 7 24 7 37 0 12 -7
16 -7 13 -1 -4 6 4 11 18 11 14 0 22 -5 19 -10 -4 -6 1 -7 12 -1 22 10 135 10
151 0 6 -4 14 -3 18 3 3 5 11 10 16 10 6 0 7 -5 3 -11 -4 -8 -1 -8 12 -2 11 6
36 8 58 6 30 -4 36 -2 31 9 -6 10 -5 11 6 1 7 -7 21 -13 32 -13 12 0 16 4 11
13 -5 8 -2 7 10 -2 12 -10 20 -11 27 -4 7 7 4 15 -10 25 -12 8 -18 18 -14 22
4 4 0 4 -10 0 -10 -3 -17 -1 -17 6 0 16 -26 40 -35 32 -5 -4 -5 -2 -2 4 4 6
-1 20 -9 30 -9 10 -12 13 -8 5 4 -9 3 -12 -4 -7 -6 4 -9 13 -6 20 3 8 -8 23
-25 36 -17 12 -31 27 -31 34 0 6 -19 30 -42 51 l-43 40 40 -45 40 -45 -41 38
c-27 25 -40 45 -37 57 3 10 -2 20 -13 24 -15 6 -15 4 -3 -11 13 -16 12 -17 -3
-4 -10 7 -16 17 -13 21 3 5 -16 30 -42 57 -34 35 -38 37 -13 9 l35 -41 -42 39
c-23 22 -40 43 -37 48 8 12 -68 107 -87 108 -8 0 -26 12 -40 28 l-24 27 30
-25 30 -24 -26 28 -26 28 -522 1 c-286 1 -521 -2 -521 -6z m1149 -120 c-2 -3
-15 10 -28 27 l-24 31 28 -27 c16 -15 27 -29 24 -31z m-1008 -14 c13 -16 12
-17 -3 -4 -17 13 -22 21 -14 21 2 0 10 -8 17 -17z m192 -222 c-2 -3 -18 10
-36 29 l-32 34 36 -30 c20 -16 34 -31 32 -33z"/>
<path d="M4594 3456 c-12 -9 -14 -42 -12 -196 l3 -185 189 -3 c145 -2 191 1
198 10 4 7 8 93 8 191 0 177 0 177 -24 186 -33 13 -344 10 -362 -3z m136 -112
c0 -31 -3 -34 -30 -34 -27 0 -30 3 -30 33 0 41 4 45 35 39 21 -4 25 -10 25
-38z m158 5 c3 -29 -18 -44 -48 -34 -12 4 -15 13 -12 36 4 26 8 30 31 27 20
-2 27 -9 29 -29z m-158 -159 c0 -26 -4 -30 -28 -30 -24 0 -28 4 -30 30 -2 27
0 30 28 30 27 0 30 -3 30 -30z m158 0 c1 -26 -3 -30 -28 -30 -22 0 -29 5 -32
25 -6 30 -2 35 32 35 23 0 27 -4 28 -30z"/>
<path d="M5260 3208 c24 -27 45 -48 47 -48 8 0 0 9 -44 50 l-48 45 45 -47z"/>
<path d="M4242 2672 c-14 -2 -20 -8 -16 -15 5 -8 2 -8 -7 1 -19 17 -46 15 -55
-5 -11 -26 -11 -37 -2 -50 5 -6 4 -14 -2 -18 -8 -5 -8 -11 1 -21 9 -11 8 -14
-2 -14 -12 0 -12 -2 0 -9 9 -6 10 -10 2 -16 -9 -5 -9 -10 0 -21 9 -11 8 -14
-2 -14 -12 0 -12 -2 0 -9 9 -6 10 -11 2 -15 -6 -4 -8 -13 -4 -19 14 -22 14
-49 1 -41 -10 6 -11 4 0 -7 6 -7 12 -17 12 -22 0 -4 -6 -5 -12 -1 -10 6 -10 4
0 -7 6 -7 12 -17 12 -22 0 -4 -6 -5 -12 -1 -10 6 -10 4 0 -8 10 -13 10 -17 0
-21 -10 -4 -10 -6 0 -6 6 -1 12 -8 12 -17 0 -9 -5 -12 -12 -8 -9 5 -9 2 1 -9
11 -14 11 -17 0 -17 -12 0 -12 -2 0 -9 9 -6 10 -10 2 -16 -9 -5 -9 -10 0 -21
9 -11 8 -14 -2 -14 -12 0 -12 -2 0 -9 9 -6 10 -10 2 -16 -9 -5 -9 -11 0 -22
10 -11 10 -16 0 -23 -11 -6 -11 -9 0 -13 12 -4 11 -7 -1 -16 -11 -8 -12 -11
-2 -11 8 0 10 -5 5 -12 -12 -20 -12 -37 -1 -44 6 -4 5 -10 -3 -15 -11 -7 -11
-9 -1 -9 7 0 10 -5 6 -11 -4 -8 1 -9 16 -4 17 6 21 4 14 -6 -6 -12 -5 -12 9 0
13 10 17 10 17 1 0 -10 3 -10 15 0 11 9 15 9 15 1 0 -7 4 -9 10 -6 19 12 50
14 56 4 4 -6 11 -6 20 2 11 9 14 9 14 -1 0 -10 3 -10 15 0 9 7 15 8 15 2 0
-12 33 -10 42 3 5 6 8 5 8 -2 0 -7 5 -13 11 -13 5 0 8 4 5 9 -5 8 22 8 32 1 7
-7 29 -5 40 3 8 6 12 5 12 -2 0 -7 5 -9 13 -4 17 10 38 13 32 4 -6 -10 66 -8
83 2 6 5 12 4 12 -1 0 -5 7 -9 15 -9 8 0 15 5 15 11 0 7 3 7 8 1 9 -13 42 -15
42 -3 0 6 6 6 14 -1 11 -9 15 -9 19 1 4 10 6 10 6 -1 1 -10 4 -11 15 -2 10 9
16 9 21 1 5 -8 10 -8 20 0 10 8 15 8 20 0 5 -8 10 -8 20 0 10 8 15 8 20 0 5
-8 10 -8 20 0 9 8 15 8 20 0 3 -6 13 -7 23 -2 21 9 43 9 60 -2 7 -4 18 -4 25
1 14 10 38 10 54 0 6 -4 15 -3 18 3 5 8 11 7 21 -1 9 -7 19 -8 27 -3 14 11 37
11 54 1 6 -4 15 -3 18 3 5 8 11 8 20 0 10 -8 15 -8 20 0 5 8 10 8 20 0 10 -8
15 -8 20 0 5 8 10 8 20 0 10 -8 15 -8 20 0 5 8 10 8 20 0 10 -8 15 -8 20 0 5
8 10 8 20 0 10 -8 15 -8 20 0 5 8 10 8 20 0 9 -8 15 -8 20 0 3 6 12 7 18 3 18
-11 49 -14 43 -5 -6 10 30 9 40 -1 12 -12 26 -8 18 5 -5 7 -3 8 7 3 20 -13 49
-13 49 -1 0 8 3 8 8 1 6 -9 78 -13 107 -5 23 6 41 5 52 -3 6 -4 14 -3 18 3 5
8 11 8 21 -1 11 -9 17 -9 28 0 10 9 16 9 21 1 4 -6 12 -7 18 -3 15 10 38 10
55 0 7 -5 12 -3 12 5 0 10 2 10 8 1 8 -12 29 -13 49 0 6 4 15 3 18 -3 4 -6 12
-7 18 -3 15 10 38 10 54 0 6 -4 14 -3 18 3 4 6 12 7 18 3 20 -12 37 -12 37 0
0 8 3 8 8 2 11 -16 46 -19 36 -3 -6 10 -4 10 9 -1 14 -11 18 -11 23 3 3 8 4
34 1 56 -2 22 0 40 5 40 5 0 6 5 2 11 -9 15 -8 454 1 468 3 6 2 11 -4 11 -6 0
-7 15 -4 35 3 21 1 41 -7 50 -14 17 -34 10 -23 -8 5 -9 3 -9 -8 -1 -8 7 -26
11 -41 9 -16 -2 -30 1 -34 6 -3 5 -13 5 -25 -1 -10 -6 -19 -7 -19 -3 0 4 -5 1
-10 -7 -6 -10 -10 -11 -10 -3 0 15 -50 13 -50 -2 0 -5 -4 -4 -8 3 -5 7 -25 14
-45 15 -20 2 -34 0 -32 -3 2 -4 -23 -5 -55 -4 -41 2 -60 -1 -60 -9 0 -7 -4 -5
-10 3 -11 19 -58 19 -71 -1 -7 -11 -9 -11 -9 0 0 9 -8 11 -24 7 -14 -3 -27 -2
-30 3 -7 11 -46 2 -46 -11 0 -5 -7 -3 -15 6 -16 15 -37 13 -64 -8 -11 -8 -13
-8 -8 0 4 7 0 15 -9 18 -8 3 -13 2 -10 -3 3 -5 -1 -12 -10 -15 -9 -3 -12 -2
-8 5 4 7 -9 9 -40 6 -25 -3 -46 -1 -46 3 0 4 -16 4 -35 0 -19 -4 -35 -5 -35
-1 0 3 -5 -1 -10 -9 -5 -8 -10 -10 -10 -4 0 7 -11 14 -25 16 -14 3 -25 1 -25
-4 0 -5 -4 -6 -10 -3 -5 3 -10 0 -10 -7 0 -10 -2 -10 -8 -1 -5 7 -21 11 -40 9
-17 -3 -34 0 -38 5 -3 5 -10 6 -16 3 -6 -4 -25 -7 -42 -6 -17 0 -37 -5 -45
-11 -10 -8 -13 -9 -8 -1 4 7 0 15 -9 18 -8 3 -13 2 -10 -3 3 -5 -1 -12 -10
-15 -9 -3 -12 -2 -8 5 4 7 -9 9 -40 6 -25 -3 -48 -1 -51 3 -3 5 -18 5 -34 0
-16 -4 -32 -6 -35 -2 -3 3 -6 -1 -6 -9 0 -10 -2 -11 -8 -2 -8 13 -42 16 -109
10 -24 -3 -43 -1 -43 4 0 5 -6 6 -13 3 -25 -9 -102 -11 -124 -3 -13 5 -23 5
-23 1 0 -6 -49 -8 -67 -2 -18 5 -69 -3 -82 -13 -11 -9 -13 -9 -8 0 5 8 -5 11
-38 8 -24 -1 -42 1 -40 6 3 4 -9 4 -26 -1 -32 -9 -50 -9 -59 0 -3 3 -15 4 -28
2z"/>
</g>
</svg>
